<?xml version="1.0" encoding="UTF-8"?>
<!DOCTYPE svg PUBLIC "-//W3C//DTD SVG 1.1//EN" "http://www.w3.org/Graphics/SVG/1.1/DTD/svg11.dtd">
<!-- Creator: CorelDRAW X7 -->
<svg xmlns="http://www.w3.org/2000/svg" xml:space="preserve" width="166mm" height="166mm" version="1.1" style="shape-rendering:geometricPrecision; text-rendering:geometricPrecision; image-rendering:optimizeQuality; fill-rule:evenodd; clip-rule:evenodd"
viewBox="0 0 16600 16600"
 xmlns:xlink="http://www.w3.org/1999/xlink">
 <defs>
  <style type="text/css">
   <![CDATA[
    .fil0 {fill:#FC6722}
    .fil1 {fill:white}
   ]]>
  </style>
 </defs>
 <g id="Vrstva_x0020_1">
  <metadata id="CorelCorpID_0Corel-Layer"/>
  <g id="_1922286684000">
   <circle class="fil0" cx="8300" cy="8300" r="8258"/>
   <path class="fil1" d="M4748 9561c295,-95 1592,-95 1710,-71 118,23 472,1038 2042,1487 1569,448 2295,332 2912,180 208,-52 454,-287 676,-378 215,-88 642,-123 615,-240 -13,-58 -146,-36 -397,-33 -478,6 -1317,-158 -2072,-308 -822,-163 -2267,-865 -2254,-909 14,-45 1544,-96 1853,-106 349,-11 577,29 777,-30 201,-59 226,-324 178,-631 -47,-306 -339,-762 -495,-778 -480,-49 -1120,88 -1557,189 -375,86 -1547,192 -1558,165 -12,-31 676,-518 1215,-732 612,-243 1817,-472 2242,-507 425,-35 710,-67 778,-189 91,-161 -188,-779 -636,-1156 -449,-378 -1417,-75 -2207,165 -788,240 -1692,769 -1936,1089 -454,594 -459,1377 -530,1471 -71,95 -613,177 -1026,272l-2677 617c0,0 -564,118 -598,175 -34,58 1361,-249 1553,-285 239,-45 1177,-240 1234,-206 57,35 -788,240 -960,263 -171,23 -753,149 -788,194 -34,46 989,-160 1005,-116 21,56 -655,186 -742,265 -73,66 452,-45 567,-34 114,12 487,-88 491,-48 5,52 -489,196 -518,245 -30,49 103,20 211,0 108,-20 349,-79 393,-64 44,15 -138,69 -98,93 39,25 152,20 250,0 98,-19 347,-49 347,-49z"/>
  </g>
 </g>
</svg>
